<svg width="839.2" height="727.08" xmlns="http://www.w3.org/2000/svg" data-name="Layer 1" viewBox="0 0 512 512"><path fill="#f7991d" d="M421.352 98.154a7.507 7.507 0 0 1-7.234-9.497c6.675-24.184 17.701-39.955 32.774-46.874a51.282 51.282 0 0 1 15.56-4.053c4.412-.608 8.221-1.132 12.866-3.474 9.617-4.85 17.051-14.68 22.096-29.215a7.5 7.5 0 0 1 14.171 4.919c-6.367 18.343-16.297 31.024-29.514 37.69-6.875 3.466-12.558 4.249-17.571 4.94-3.984.548-7.424 1.022-11.35 2.824-10.863 4.987-19.13 17.515-24.573 37.233a7.503 7.503 0 0 1-7.225 5.507zM7.504 512.002a7.507 7.507 0 0 1-7.234-9.497c6.675-24.184 17.701-39.955 32.774-46.874a51.294 51.294 0 0 1 15.56-4.053c4.411-.608 8.221-1.133 12.865-3.475 9.618-4.85 17.052-14.678 22.097-29.214a7.5 7.5 0 0 1 14.171 4.919c-6.367 18.344-16.297 31.024-29.514 37.689-6.875 3.467-12.558 4.25-17.571 4.94-3.984.55-7.425 1.023-11.35 2.826-10.863 4.987-19.13 17.514-24.573 37.232a7.503 7.503 0 0 1-7.225 5.507z"/><path fill="#fdd402" d="M88.74 423.26a21.627 21.627 0 0 1 0-30.585l35.364-35.363 30.584 30.584-35.363 35.364a21.627 21.627 0 0 1-30.585 0ZM388.851 153.733l-30.585-30.585 35.364-35.363a21.627 21.627 0 0 1 30.584 0 21.627 21.627 0 0 1 0 30.585l-35.363 35.363Z"/><circle cx="154.905" cy="358.267" r="39.789" fill="#f7991d"/><circle cx="218.971" cy="395.154" r="39.789" fill="#fdd402"/><circle cx="292.744" cy="395.154" r="39.799" fill="#f7991d"/><circle cx="357.782" cy="358.267" r="39.789" fill="#fdd402"/><circle cx="394.668" cy="294.201" r="39.789" fill="#f7991d"/><circle cx="394.668" cy="219.457" r="39.799" fill="#fdd402"/><circle cx="357.782" cy="155.39" r="39.789" fill="#f7991d"/><circle cx="292.744" cy="118.504" r="39.789" fill="#fdd402"/><circle cx="218.971" cy="118.504" r="39.799" fill="#f7991d"/><circle cx="154.905" cy="155.39" r="39.789" fill="#fdd402"/><circle cx="118.018" cy="219.457" r="39.789" fill="#f7991d"/><circle cx="118.018" cy="294.201" r="39.799" fill="#fdd402"/><circle cx="255.858" cy="257.314" r="125.045" fill="#ef542a"/><circle cx="255.858" cy="257.314" r="29.121" fill="#fdd402"/><path fill="#2c2b2d" d="M317.93 240.68a12.616 12.616 0 1 0 6.562-14.561 12.734 12.734 0 0 0-6.562 14.56Zm24.372 39.799a12.616 12.616 0 1 0-12.963 9.329 12.734 12.734 0 0 0 12.963-9.33Zm-40.523 21.786a12.62 12.62 0 1 0 15.955-1.557 12.733 12.733 0 0 0-15.955 1.557ZM506.959.415a7.569 7.569 0 0 0-9.342 4.104c-.927 2.148-1.611 4.4-2.547 6.55a68.048 68.048 0 0 1-2.939 5.963c-3.656 6.559-8.624 12.546-15.19 16.341a35.118 35.118 0 0 1-12.82 4.124 75.349 75.349 0 0 0-12.761 2.535 45.323 45.323 0 0 0-19.416 12.935 74.256 74.256 0 0 0-13.197 21.965c-.223.549-.064.573-.613.525a4.381 4.381 0 0 1-.712-.228q-.983-.3-1.985-.531a29.038 29.038 0 0 0-23.183 4.485 61.622 61.622 0 0 0-7.889 7.257l-10.864 10.867-9.547 9.551-1.129 1.13c-.426.426-.343.348-1.092.284a46.913 46.913 0 0 0-22.182 3.489 47.301 47.301 0 0 0-65.121-36.866 46.961 46.961 0 0 0-18.586 13.99 47.307 47.307 0 0 0-74.08.4 46.99 46.99 0 0 0-9.583 22.093 47.25 47.25 0 0 0-61.254 61.325 47.267 47.267 0 0 0-21.87 84.116 47.273 47.273 0 0 0 21.859 84.123 46.232 46.232 0 0 0-3.24 14.726 49.058 49.058 0 0 0 .04 5.918c.06.843.268 1.136-.192 1.704a42.965 42.965 0 0 1-3.105 3.104l-5.221 5.222-11.487 11.487c-2.692 2.692-5.592 5.304-7.753 8.458a29.327 29.327 0 0 0-3.24 26.563 28.924 28.924 0 0 0 3.382 6.448q.192.274.39.544c.308.423.379.367.258.854a8.994 8.994 0 0 1-.733 1.563q-.802 1.657-1.694 3.269a48.841 48.841 0 0 1-7.703 10.532 34.731 34.731 0 0 1-9.488 6.94c-4.314 2.11-8.914 2.792-13.616 3.454a52.454 52.454 0 0 0-13.413 3.436 43.48 43.48 0 0 0-9.18 5.346C11.778 470.473 4.629 486.681.365 502.166a7.622 7.622 0 0 0 4.606 9.395 7.574 7.574 0 0 0 9.678-4.791c1.487-4.59 2.771-9.182 4.66-13.637a66.7 66.7 0 0 1 5.748-10.887c3.735-5.627 8.666-10.613 14.954-13.295 4.41-1.88 9.168-2.238 13.85-2.98a48.805 48.805 0 0 0 13.309-3.958 52.093 52.093 0 0 0 19.416-16.356 67.838 67.838 0 0 0 3.782-5.716q.844-1.423 1.625-2.883.438-.818.856-1.646c.252-.498.07-.348.58-.316a5.933 5.933 0 0 1 1.242.453 29.253 29.253 0 0 0 15.009.997c6.34-1.249 11.558-4.598 16.064-9.102l9.788-9.785 10.59-10.585 1.427-1.426c.137-.138.389-.51.58-.58a4.557 4.557 0 0 1 1.08.142q.901.112 1.806.188c1.42.118 2.847.172 4.273.16a45.737 45.737 0 0 0 6.11-.441 48.636 48.636 0 0 0 10.828-2.85 47.341 47.341 0 0 0 63.579 37.089 47.037 47.037 0 0 0 20.07-14.579 47.263 47.263 0 0 0 83.66-22.892 47.26 47.26 0 0 0 62.22-60.95 47.252 47.252 0 0 0 21.874-84.09 47.344 47.344 0 0 0 2.042-73.12 47.084 47.084 0 0 0-23.876-11.063 47.359 47.359 0 0 0 3.246-16.186q.045-2.063-.089-4.124-.06-.935-.158-1.868c-.045-.426-.392-1.472-.23-1.86.076-.183.393-.394.53-.53l8.934-8.935 11.614-11.613c2.952-2.952 6.02-5.784 8.209-9.387a29.363 29.363 0 0 0 1.57-27.2 29.068 29.068 0 0 0-3.79-6.115c-.222-.277-.365-.365-.36-.681a3.267 3.267 0 0 1 .307-.842q.305-.828.626-1.65.743-1.904 1.574-3.774a61.483 61.483 0 0 1 6.612-11.597c4.888-6.606 11.414-11.453 19.592-13.01 4.397-.838 8.865-1.151 13.21-2.282a45.857 45.857 0 0 0 12.741-5.539 55.195 55.195 0 0 0 16.723-16.847A79.1 79.1 0 0 0 509 16.647c.94-2.19 1.845-4.421 2.585-6.688a7.623 7.623 0 0 0-.336-5.73 7.538 7.538 0 0 0-4.29-3.814Zm-168.173 128.89a32.255 32.255 0 1 1 26.265 57.534q-.772.181-1.552.324c-.543.099-.445.147-.823-.19a6.641 6.641 0 0 1-.794-1.188q-2.514-3.71-5.281-7.238a129.623 129.623 0 0 0-29.56-27.496 47.56 47.56 0 0 0 11.745-21.745Zm-54.394-41.991a32.287 32.287 0 0 1 30.895 54.308q-.566.552-1.16 1.076c-.535.474-.5.473-1.173.136q-1.605-.802-3.231-1.558a126.347 126.347 0 0 0-13.322-5.296 127.802 127.802 0 0 0-31.486-6.214 47.053 47.053 0 0 0-.208-23.317c-.21-.788-.86-2.064-.614-2.805a11.008 11.008 0 0 1 1.167-2.075 31.957 31.957 0 0 1 9.44-9.865 32.512 32.512 0 0 1 9.692-4.39Zm-88.26 8.35a32.294 32.294 0 0 1 54.595 28.649 32.18 32.18 0 0 1-.823 3.447 5.45 5.45 0 0 1-.555 1.686c-.31.362-1.346.238-1.889.273a128.526 128.526 0 0 0-15.149 1.882 126.774 126.774 0 0 0-32.011 10.482 47.014 47.014 0 0 0-10.114-18.185q-.814-.907-1.674-1.77c-.555-.56-1.644-1.268-1.788-2.014a18.53 18.53 0 0 1 .133-5.103 31.944 31.944 0 0 1 2.665-9.827 32.435 32.435 0 0 1 6.61-9.52Zm-72.419 51.368a32.31 32.31 0 0 1 62.264-.398q.217.763.396 1.536.09.387.17.776.048.233.092.467.224.402-.241.506a8.546 8.546 0 0 1-1.49.983q-.741.496-1.476 1.003-1.62 1.118-3.205 2.285-3.184 2.343-6.22 4.88a129.654 129.654 0 0 0-23.616 25.906 47.047 47.047 0 0 0-17.277-10.333q-1.17-.391-2.36-.72a14.908 14.908 0 0 1-2.564-.637c-.604-.305-1.074-1.466-1.42-2.074q-.669-1.18-1.237-2.413a31.908 31.908 0 0 1-2.754-9.97 32.424 32.424 0 0 1 .938-11.797Zm-36.888 80.779a32.3 32.3 0 0 1 52.152-32.898 32.065 32.065 0 0 1 2.434 2.296c.325.34.927.801.885 1.219a7.681 7.681 0 0 1-.974 1.912 126.72 126.72 0 0 0-13 47.694 47.65 47.65 0 0 0-23.125.647c-1.232.347-3.16-1.155-4.22-1.815a32.335 32.335 0 0 1-14.152-19.055Zm8.356 89.224a32.303 32.303 0 0 1 31.222-54.026c.38.102 1.52.237 1.736.516.193.25.058 1.128.078 1.463q.118 2.005.298 4.005a128.294 128.294 0 0 0 2.038 13.979 126.652 126.652 0 0 0 10.204 30.167 47.411 47.411 0 0 0-17.565 10.046c-.603.545-1.196 1.1-1.77 1.675-.469.472-1.057 1.397-1.66 1.587a8.605 8.605 0 0 1-2.401.048q-1.35-.022-2.694-.158a31.874 31.874 0 0 1-9.826-2.621 32.518 32.518 0 0 1-9.66-6.681Zm18.832 100.925a14.13 14.13 0 0 1-22.436-16.67c1.41-2.615 3.807-4.647 5.886-6.726l8.986-8.986 6.156-6.156a47.397 47.397 0 0 0 19.611 20.342l-15.916 15.91Zm63.47-45.478a46.807 46.807 0 0 0-2.769 6.026q-.566 1.505-1.028 3.046c-.321 1.074-.483 2.236-.858 3.286-.297.835-1.713 1.381-2.5 1.807q-1.401.76-2.874 1.378c-1.422.596-2.88.995-4.335 1.48l.14-.046a32.287 32.287 0 0 1-40.195-36.565 31.656 31.656 0 0 1 3.244-9.634 40.7 40.7 0 0 1 5.814-7.895l-.064.073a32.473 32.473 0 0 1 14.851-8.466 4.358 4.358 0 0 1 1.394-.32c.272.07.668.901.857 1.186q1.093 1.648 2.237 3.26a129.463 129.463 0 0 0 32.72 32.096 47.084 47.084 0 0 0-6.633 9.288Zm49.848 53.863a32.307 32.307 0 0 1-33.117-51.92 31.879 31.879 0 0 1 2.328-2.5 3.354 3.354 0 0 1 .623-.587c.413-.21.288-.212.732.014q.877.447 1.76.88a126.746 126.746 0 0 0 46.92 12.617 47.204 47.204 0 0 0 .589 22.931q.176.632.369 1.259c.184.596.24.703-.048 1.248q-.555 1.052-1.186 2.062a32.26 32.26 0 0 1-2.682 3.685 31.852 31.852 0 0 1-6.726 6.006 32.496 32.496 0 0 1-9.562 4.305Zm-51.283-89.222a113.39 113.39 0 0 1-21.864-30.683 112.162 112.162 0 0 1-10.368-35.363 114.479 114.479 0 0 1 1.704-37.71 111.823 111.823 0 0 1 13.591-34.258 113.971 113.971 0 0 1 24.174-28.244 112.381 112.381 0 0 1 62.895-25.953 113.932 113.932 0 0 1 33.667 2.145 112.523 112.523 0 0 1 88.602 102.278 114.093 114.093 0 0 1-3.622 37.554 112.038 112.038 0 0 1-15.527 33.78 114.056 114.056 0 0 1-23.677 25.377 112.299 112.299 0 0 1-54.414 23.042 113.511 113.511 0 0 1-57.65-7.133 112.16 112.16 0 0 1-26.215-14.936 113.503 113.503 0 0 1-11.296-9.896Zm139.54 80.872a32.31 32.31 0 0 1-54.502-29.185 12.445 12.445 0 0 1 .877-3.44c.303-.537.016-.203.474-.356a4.933 4.933 0 0 1 1.094-.06q1.091-.064 2.182-.146a128.354 128.354 0 0 0 15.05-2.04 126.716 126.716 0 0 0 31.764-10.766 47.445 47.445 0 0 0 10.08 17.859q.771.856 1.583 1.675a2.106 2.106 0 0 1 .731 1.019 7.297 7.297 0 0 1 .083 1.455 32.38 32.38 0 0 1-9.416 23.985Zm73.376-51.365a32.288 32.288 0 0 1-62.212.56q-.199-.69-.368-1.39c-.062-.26-.447-1.326-.336-1.566.155-.337 1.203-.803 1.494-1q.745-.507 1.482-1.023a129.583 129.583 0 0 0 33.086-33.7 47.093 47.093 0 0 0 17.333 10.462q1.166.395 2.352.728a21.019 21.019 0 0 1 2.56.644c.694.3 1.103 1.284 1.491 1.963q.674 1.178 1.248 2.408a31.947 31.947 0 0 1 2.795 9.956 32.479 32.479 0 0 1-.925 11.958Zm36.891-80.789a32.275 32.275 0 0 1-54.57 30.621 6.915 6.915 0 0 1-1.063-1.172c-.26-.478-.136-.124-.044-.561a4.98 4.98 0 0 1 .478-.961q.791-1.605 1.536-3.231a125.814 125.814 0 0 0 5.208-13.318 128.018 128.018 0 0 0 6.065-31.814 47.514 47.514 0 0 0 23.481-.275 2.484 2.484 0 0 1 1.366-.181 6.055 6.055 0 0 1 1.074.527q1.06.545 2.077 1.167a32.367 32.367 0 0 1 14.392 19.198Zm-8.35-89.23a32.316 32.316 0 0 1-32.423 53.698c-.336-.104-1.355-.257-1.567-.528-.237-.304-.105-1.41-.135-1.834a128.544 128.544 0 0 0-1.993-15.126 126.654 126.654 0 0 0-10.722-31.931 47.12 47.12 0 0 0 18.355-10q.977-.863 1.906-1.778c.534-.526 1.296-1.685 1.975-1.899a8.653 8.653 0 0 1 2.406-.05q1.352.023 2.699.158a31.912 31.912 0 0 1 9.838 2.616 32.446 32.446 0 0 1 9.66 6.675Zm1.402-83.544-17.205 17.204-2.435 2.436a47.466 47.466 0 0 0-20.34-19.61l14.626-14.632c1.789-1.79 3.56-3.6 5.369-5.37a14.127 14.127 0 1 1 19.985 19.972ZM239.223 194.27a12.616 12.616 0 1 0-14.561-6.563 12.734 12.734 0 0 0 14.561 6.563ZM193.06 302.265a12.62 12.62 0 1 0 15.955-1.557 12.733 12.733 0 0 0-15.955 1.557Zm0-108.719a12.62 12.62 0 1 0 15.955-1.557 12.733 12.733 0 0 0-15.955 1.557Zm46.163 125.84a12.616 12.616 0 1 0 9.33 12.964 12.734 12.734 0 0 0-9.33-12.963Zm33.268 0a12.616 12.616 0 1 0 14.561 6.563 12.734 12.734 0 0 0-14.56-6.562Zm-16.634-98.693a36.535 36.535 0 1 0 5.786.451 36.959 36.959 0 0 0-5.786-.451Zm15.289 51.91a21.619 21.619 0 1 1 3.202-26.5 21.842 21.842 0 0 1-3.202 26.5Zm48.48-61.21a12.62 12.62 0 1 0-15.956 1.557 12.733 12.733 0 0 0 15.955-1.558Zm-125.841 62.555a12.616 12.616 0 1 0-6.562 14.561 12.734 12.734 0 0 0 6.562-14.56Zm78.706-79.677a12.616 12.616 0 1 0-9.329-12.964 12.734 12.734 0 0 0 9.33 12.964Zm-94.158 55.33a12.616 12.616 0 1 0-9.329-12.964 12.734 12.734 0 0 0 9.33 12.964Z"/ ></svg>