<svg width="839.2" height="727.08" xmlns="http://www.w3.org/2000/svg" data-name="Layer 1" viewBox="0 0 512 512"><path fill="#fdd402" d="M7.50439,511.44873a7.50654,7.50654,0,0,1-7.23291-9.50146C6.5,479.42725,16.81641,464.73,30.93408,458.26416a48.04291,48.04291,0,0,1,14.56446-3.78955c4.0371-.55469,7.52392-1.03418,11.74462-3.15772,8.77442-4.415,15.5669-13.39062,20.189-26.67822a7.49977,7.49977,0,1,1,14.167,4.92774c-5.94678,17.09668-15.2373,28.92236-27.61377,35.1499-6.44873,3.24463-11.75928,3.97461-16.44433,4.61865-3.64747.50147-6.79688.93457-10.36036,2.56641-9.90478,4.53662-17.45849,15.99072-22.45214,34.04492A7.50385,7.50385,0,0,1,7.50439,511.44873Z"/><path fill="#e5303e" d="M95.30074,385.28254l28.25114,28.341-13.87826,13.84907a20.06228,20.06228,0,0,1-28.32761,0l0,0a19.95456,19.95456,0,0,1,0-28.26452Z"/><path fill="#b72732" d="M91.346,427.47266v-.00006a19.95448,19.95448,0,0,1,0-28.26453l8.1062-8.088-5-4.98889L81.346,399.20807a19.95448,19.95448,0,0,0,0,28.26453v.00006a20.03285,20.03285,0,0,0,19.16382,5.20184A19.91878,19.91878,0,0,1,91.346,427.47266Z"/><path fill="#fdd402" d="M427.48877,92.39941a7.5065,7.5065,0,0,1-7.23291-9.50146c6.22852-22.51953,16.54492-37.2168,30.6626-43.68262a48.04279,48.04279,0,0,1,14.56445-3.78955c4.03711-.55469,7.52393-1.03418,11.74463-3.15771,8.77392-4.41455,15.56641-13.39063,20.189-26.6792a7.49993,7.49993,0,0,1,14.167,4.92871c-5.94727,17.09668-15.23829,28.92285-27.61377,35.1499-6.44873,3.24463-11.75928,3.97461-16.44434,4.61865-3.64746.50147-6.79687.93457-10.36035,2.56641-9.90479,4.53662-17.4585,15.99072-22.45215,34.04443A7.50382,7.50382,0,0,1,427.48877,92.39941Z"/><path fill="#e5303e" d="M385.59626,95.63926l28.395,27.872,14.74945-14.395a19.95458,19.95458,0,0,0,0-28.26452l0,0a20.06227,20.06227,0,0,0-28.3276,0Z"/><path fill="#b72732" d="M400.41309,90.85168a20.06238,20.06238,0,0,1,28.32763,0v.00007a19.85306,19.85306,0,0,1,5.2107,9.1322,19.92721,19.92721,0,0,0-5.2107-19.1322v-.00007a20.06227,20.06227,0,0,0-28.32763,0L387.30688,93.92853l5.01124,5Z"/><ellipse cx="357.097" cy="200.172" fill="#74bf4b" rx="23.551" ry="23.498"/><ellipse cx="357.097" cy="104.501" fill="#74bf4b" rx="23.551" ry="23.498"/><path fill="#5dae47" d="M357.09668,91.00232a23.54329,23.54329,0,0,1,23.011,18.49817,23.55078,23.55078,0,1,0-46.022,0A23.54329,23.54329,0,0,1,357.09668,91.00232Z"/><ellipse cx="405.039" cy="152.336" fill="#74bf4b" rx="23.551" ry="23.498"/><ellipse cx="309.154" cy="152.336" fill="#74bf4b" rx="23.551" ry="23.498"/><path fill="#5dae47" d="M295.60352,152.33612a23.51553,23.51553,0,0,1,18.55078-22.9624,23.49823,23.49823,0,1,0,0,45.9248A23.51553,23.51553,0,0,1,295.60352,152.33612Z"/><ellipse cx="323.196" cy="186.161" fill="#74bf4b" rx="23.551" ry="23.498"/><ellipse cx="390.997" cy="118.511" fill="#3f6db4" rx="23.551" ry="23.498"/><path fill="#1f53a4" d="M384.34424,135.127a23.467,23.467,0,0,1,11.65283-39.56146,23.49353,23.49353,0,1,0,0,45.89148A23.43165,23.43165,0,0,1,384.34424,135.127Z"/><ellipse cx="390.997" cy="186.161" fill="#3f6db4" rx="23.551" ry="23.498"/><ellipse cx="323.196" cy="118.511" fill="#3f6db4" rx="23.551" ry="23.498"/><path fill="#1f53a4" d="M316.54346,135.127a23.467,23.467,0,0,1,11.65283-39.56146,23.49353,23.49353,0,1,0,0,45.89148A23.43165,23.43165,0,0,1,316.54346,135.127Z"/><path fill="#5dae47" d="M381.48828,152.33612a23.50182,23.50182,0,0,0,14.90943,21.8584,36.45413,36.45413,0,0,0,0-43.7168A23.50183,23.50183,0,0,0,381.48828,152.33612Z"/><path fill="#1f53a4" d="M401.37842 165.08691a23.507 23.507 0 0 0-33.76416 23.743 36.54657 36.54657 0 0 0 33.76416-23.743zM392.968 126.5224a36.49893 36.49893 0 0 0-25.35376-10.68005 23.507 23.507 0 0 0 33.76416 23.743A36.34784 36.34784 0 0 0 392.968 126.5224z"/><ellipse cx="357.097" cy="152.336" fill="#fff" rx="36.588" ry="36.506"/><path fill="#e0e0e2" d="M341.22534,178.14984a36.49435,36.49435,0,0,1,20.87134-61.97412,36.51136,36.51136,0,1,0,0,72.3208A36.45081,36.45081,0,0,1,341.22534,178.14984Z"/><ellipse cx="355.361" cy="152.336" fill="#e5303e" rx="7.517" ry="7.5"/><ellipse cx="152.105" cy="404.707" fill="#74bf4b" rx="23.551" ry="23.498"/><path fill="#5dae47" d="M138.5542,404.70709a23.51531,23.51531,0,0,1,18.55054-22.96234,23.4982,23.4982,0,1,0,0,45.92474A23.51532,23.51532,0,0,1,138.5542,404.70709Z"/><ellipse cx="152.105" cy="309.036" fill="#74bf4b" rx="23.551" ry="23.498"/><path fill="#5dae47" d="M152.10474,295.53766a23.54322,23.54322,0,0,1,23.011,18.49817,23.55054,23.55054,0,1,0-46.022,0A23.54323,23.54323,0,0,1,152.10474,295.53766Z"/><ellipse cx="200.047" cy="356.871" fill="#74bf4b" rx="23.551" ry="23.498"/><ellipse cx="104.162" cy="356.871" fill="#74bf4b" rx="23.551" ry="23.498"/><path fill="#5dae47" d="M90.61182,356.87146a23.5153,23.5153,0,0,1,18.55053-22.96234,23.4982,23.4982,0,1,0,0,45.92474A23.51532,23.51532,0,0,1,90.61182,356.87146Z"/><ellipse cx="118.204" cy="390.696" fill="#3f6db4" rx="23.498" ry="23.551" transform="rotate(-43.468 118.204 390.696)"/><path fill="#1f53a4" d="M124.85935,407.33355a23.58782,23.58782,0,0,1-22.91274-24.17175,23.34779,23.34779,0,0,1,4.06764-12.59331A23.52986,23.52986,0,1,0,137.652,403.94471,23.34778,23.34778,0,0,1,124.85935,407.33355Z"/><ellipse cx="186.005" cy="323.047" fill="#74bf4b" rx="23.551" ry="23.498"/><ellipse cx="186.005" cy="390.696" fill="#3f6db4" rx="23.498" ry="23.551" transform="rotate(-41.846 186.005 390.696)"/><ellipse cx="118.204" cy="323.047" fill="#3f6db4" rx="23.498" ry="23.551" transform="rotate(-46.65 118.204 323.047)"/><path fill="#1f53a4" d="M101.96063,330.56213a23.467,23.467,0,0,1,35.63087-20.7687,23.49353,23.49353,0,1,0-31.50258,33.37088A23.43165,23.43165,0,0,1,101.96063,330.56213Z"/><path fill="#5dae47" d="M176.49658,356.87146a23.50163,23.50163,0,0,0,14.90918,21.85846,36.45422,36.45422,0,0,0,0-43.71686A23.50155,23.50155,0,0,0,176.49658,356.87146Z"/><path fill="#1f53a4" d="M196.39258,369.606A23.47225,23.47225,0,0,0,162.644,393.36481,36.54618,36.54618,0,0,0,196.39258,369.606Z"/><ellipse cx="152.105" cy="356.871" fill="#fff" rx="36.588" ry="36.506"/><path fill="#e0e0e2" d="M136.2334,382.68524a36.49438,36.49438,0,0,1,20.87134-61.97418,36.51138,36.51138,0,1,0,0,72.32086A36.45078,36.45078,0,0,1,136.2334,382.68524Z"/><ellipse cx="150.369" cy="356.871" fill="#e5303e" rx="7.517" ry="7.5"/><ellipse cx="253.601" cy="328.936" fill="#fdd402" rx="36.596" ry="36.514"/><path fill="#fbbf13" d="M237.00513,328.93591a36.53386,36.53386,0,0,1,26.59546-35.12243,36.514,36.514,0,1,0,0,70.24487A36.53387,36.53387,0,0,1,237.00513,328.93591Z"/><ellipse cx="253.601" cy="180.272" fill="#fdd402" rx="36.596" ry="36.514"/><path fill="#fbbf13" d="M237.00513,180.27167a36.5338,36.5338,0,0,1,26.59546-35.12238,36.514,36.514,0,1,0,0,70.24481A36.53386,36.53386,0,0,1,237.00513,180.27167Z"/><ellipse cx="328.099" cy="254.604" fill="#fdd402" rx="36.596" ry="36.514"/><ellipse cx="179.103" cy="254.604" fill="#fdd402" rx="36.596" ry="36.514"/><path fill="#fbbf13" d="M162.50708,254.60382a36.53387,36.53387,0,0,1,26.59546-35.12244,36.514,36.514,0,1,0,0,70.24482A36.5338,36.5338,0,0,1,162.50708,254.60382Z"/><ellipse cx="200.923" cy="307.165" fill="#f7991d" rx="36.514" ry="36.596" transform="rotate(-37.255 200.923 307.165)"/><path fill="#e37626" d="M211.95556,331.28413a36.60968,36.60968,0,0,1-24.37911-58.187A36.579,36.579,0,1,0,230.188,329.12475,36.31809,36.31809,0,0,1,211.95556,331.28413Z"/><ellipse cx="306.279" cy="202.043" fill="#f7991d" rx="36.596" ry="36.514"/><ellipse cx="306.279" cy="307.165" fill="#f7991d" rx="36.514" ry="36.596" transform="rotate(-37.844 306.279 307.165)"/><ellipse cx="200.923" cy="202.043" fill="#f7991d" rx="36.514" ry="36.596" transform="rotate(-54.662 200.923 202.043)"/><path fill="#e37626" d="M181.19468,219.70614a36.49618,36.49618,0,0,1,48.20046-40.53088,36.52885,36.52885,0,1,0-40.62993,57.30355A36.43754,36.43754,0,0,1,181.19468,219.70614Z"/><path fill="#fbbf13" d="M318.20972,219.44989a36.48986,36.48986,0,0,0,0,70.3078A56.63293,56.63293,0,0,0,318.20972,219.44989Z"/><path fill="#e37626" d="M326.07007 276.45874a36.48971 36.48971 0 0 0-56.1023 34.74255 56.83 56.83 0 0 0 56.1023-34.74255zM313.80249 214.49164a56.77462 56.77462 0 0 0-43.8877-16.48157 36.57327 36.57327 0 0 0 56.158 34.74463A56.53458 56.53458 0 0 0 313.80249 214.49164z"/><ellipse cx="253.601" cy="254.604" fill="#fff" rx="56.854" ry="56.727"/><path fill="#e0e0e2" d="M233.39893,294.71594a56.69918,56.69918,0,0,1,30.20166-95.94549,56.73553,56.73553,0,1,0,0,111.66668A56.61775,56.61775,0,0,1,233.39893,294.71594Z"/><path fill="#e5303e" d="M262.03027,289.99023a7.60648,7.60648,0,1,1,2.07569-.292l-.22559.05957A7.50964,7.50964,0,0,1,262.03027,289.99023Zm-27.80078-7.42382a7.47671,7.47671,0,0,1-5.30322-2.19678l-.05957-.05957a7.543,7.543,0,0,1-.063-10.61475,7.45888,7.45888,0,0,1,10.54346-.11718l.09033.08984.09521.09521a7.5,7.5,0,0,1-5.30322,12.80323ZM282.49512,269.603a7.50042,7.50042,0,0,1-7.26172-9.34522l.05273-.19922a7.5,7.5,0,0,1,14.47168,3.94629l-.00635.02295A7.53826,7.53826,0,0,1,282.49512,269.603Zm-55.80078-14.96582a7.50646,7.50646,0,0,1-7.24024-9.4751l.00635-.023a7.4999,7.4999,0,0,1,14.51807,3.77l-.05274.19922A7.50405,7.50405,0,0,1,226.69434,254.63721ZM275.042,241.73193a7.428,7.428,0,0,1-5.27246-2.18652l-.0708-.0708a7.49989,7.49989,0,1,1,10.60645-10.60645l.02929.0293a7.51026,7.51026,0,0,1-5.29248,12.83447Zm-27.96533-7.4873a7.50327,7.50327,0,0,1-1.94043-14.74561l.22559-.05957a7.50125,7.50125,0,1,1,1.71484,14.80518Z"/></svg>