<svg xmlns="http://www.w3.org/2000/svg" data-name="Layer 1" viewBox="0 0 512 512"><circle cx="256" cy="256" r="248.5" fill="#fdd402"/><path fill="#fbbf13" d="M27.5 256.02C27.49 122.12 133.388 12.968 266.001 7.717a252.506 252.506 0 0 0-10.02-.217C118.737 7.51 7.488 118.777 7.5 256.02S118.777 504.51 256.02 504.5a252.5 252.5 0 0 0 9.979-.217C133.404 499.032 27.51 389.904 27.5 256.02Z"/><path fill="#fdd402" d="M476.5 255.983c.002 22.707-23.104 41.489-29.755 61.98-6.894 21.236.526 49.964-12.337 67.642-12.992 17.854-42.693 19.618-60.545 32.613-17.675 12.865-28.457 40.642-49.692 47.54-20.49 6.654-45.447-9.26-68.155-9.258s-47.663 15.92-68.153 9.268c-21.237-6.894-32.023-34.669-49.7-47.532-17.854-12.991-47.556-14.751-60.55-32.603-12.866-17.675-5.451-46.405-12.348-67.64-6.655-20.49-29.763-39.268-29.765-61.976s23.104-41.489 29.755-61.98c6.894-21.236-.526-49.964 12.337-67.642 12.992-17.854 42.693-19.618 60.545-32.613 17.675-12.865 28.457-40.642 49.692-47.54 20.49-6.654 45.447 9.26 68.155 9.258s47.663-15.92 68.153-9.268c21.237 6.894 32.023 34.669 49.7 47.532 17.854 12.991 47.556 14.751 60.55 32.603 12.866 17.675 5.451 46.405 12.348 67.64 6.655 20.49 29.763 39.268 29.765 61.976Z"/><path fill="#fff4ca" d="M476.5 255.983c.002 22.707-23.104 41.489-29.755 61.98-6.894 21.236.526 49.964-12.337 67.642-12.992 17.854-42.693 19.618-60.545 32.613-17.675 12.865-28.457 40.642-49.692 47.54-20.49 6.654-45.447-9.26-68.155-9.258s-47.663 15.92-68.153 9.268c-21.237-6.894-32.023-34.669-49.7-47.532-17.854-12.991-47.556-14.751-60.55-32.603-12.866-17.675-5.451-46.405-12.348-67.64-6.655-20.49-29.763-39.268-29.765-61.976s23.104-41.489 29.755-61.98c6.894-21.236-.526-49.964 12.337-67.642 12.992-17.854 42.693-19.618 60.545-32.613 17.675-12.865 28.457-40.642 49.692-47.54 20.49-6.654 45.447 9.26 68.155 9.258s47.663-15.92 68.153-9.268c21.237 6.894 32.023 34.669 49.7 47.532 17.854 12.991 47.556 14.751 60.55 32.603 12.866 17.675 5.451 46.405 12.348 67.64 6.655 20.49 29.763 39.268 29.765 61.976Z"/><path fill="#fdeb96" d="M276.016 456.5a61.946 61.946 0 0 0-9.995.894c19.16 3.14 39.188 13.307 56.31 8.895-15.116-2.757-31.213-9.79-46.315-9.789zm-68.153 9.268c-21.237-6.894-32.023-34.669-49.7-47.532-17.854-12.991-47.556-14.751-60.55-32.603-12.866-17.675-5.451-46.405-12.348-67.64-6.655-20.49-29.763-39.268-29.765-61.976-.002-22.707 23.104-41.489 29.755-61.98 6.893-21.236-.526-49.964 12.337-67.642 12.991-17.854 42.693-19.618 60.545-32.613 17.675-12.865 28.457-40.642 49.692-47.54.61-.197 1.223-.372 1.84-.53-7.613-1.39-14.977-1.698-21.84.53-21.235 6.898-32.017 34.675-49.692 47.54-17.852 12.995-47.554 14.76-60.545 32.613-12.863 17.678-5.444 46.406-12.337 67.643-6.651 20.49-29.757 39.272-29.755 61.98s23.11 41.485 29.765 61.975c6.897 21.235-.518 49.965 12.348 67.64 12.994 17.852 42.696 19.612 60.55 32.603 17.677 12.863 28.463 40.638 49.7 47.532 6.86 2.227 14.223 1.918 21.832.53a30.875 30.875 0 0 1-1.832-.53z"/><circle cx="315.565" cy="76.961" r="7.5" fill="#e5303e"/><circle cx="406.565" cy="146.961" r="7.5" fill="#e5303e"/><circle cx="446.565" cy="257.961" r="7.5" fill="#e5303e"/><circle cx="416.565" cy="368.961" r="7.5" fill="#e5303e"/><circle cx="314.565" cy="439.961" r="7.5" fill="#e5303e"/><circle cx="193.565" cy="439.961" r="7.5" fill="#e5303e"/><circle cx="102.565" cy="369.961" r="7.5" fill="#e5303e"/><circle cx="62.565" cy="258.961" r="7.5" fill="#e5303e"/><circle cx="100.565" cy="139.961" r="7.5" fill="#e5303e"/><circle cx="195.565" cy="69.961" r="7.5" fill="#e5303e"/><path fill="#ef542a" d="M276.185 358.733a46.554 46.554 0 1 1-51.614-54.772c4.685-.592 16.718-17.271 21.61-16.355 7.077 1.327 6.3 20.984 11.745 24.974a46.558 46.558 0 0 1 18.259 46.153Z"/><path fill="#ed2d24" d="M204.67 341.584a46.575 46.575 0 0 1 39.901-37.623c1.8-.228 4.688-2.833 7.836-5.901-1.316-5.178-2.908-9.832-6.227-10.454-4.89-.916-16.924 15.763-21.609 16.355a46.564 46.564 0 1 0 15.91 91.662 46.545 46.545 0 0 1-35.812-54.04Z"/><circle cx="367" cy="307" r="49.5" fill="#e5303e"/><path fill="#b72732" d="M334.5 307a49.503 49.503 0 0 1 41-48.758 49.5 49.5 0 1 0 0 97.516 49.503 49.503 0 0 1-41-48.758Z"/><circle cx="328.5" cy="175.5" r="44" fill="#e0e0e2"/><path fill="#d9d8da" d="M297.5 175.5a44.007 44.007 0 0 1 37.5-43.519 44 44 0 1 0 0 87.038 44.007 44.007 0 0 1-37.5-43.519Z"/><circle cx="348.5" cy="288.045" r="7.5" fill="#b72732"/><circle cx="380.37" cy="285.363" r="7.5" fill="#b72732"/><circle cx="369.043" cy="331.961" r="7.5" fill="#b72732"/><circle cx="366.75" cy="307" r="7.5" fill="#b72732"/><circle cx="392.5" cy="314.5" r="7.5" fill="#b72732"/><circle cx="345.565" cy="316.961" r="7.5" fill="#b72732"/><path fill="#afaeb3" d="M308.204 177.564a7.502 7.502 0 0 1-6.304-11.554l8.107-12.621a7.5 7.5 0 0 1 12.62 8.106l-8.106 12.621a7.493 7.493 0 0 1-6.317 3.448zm40.589 2.382a7.486 7.486 0 0 1-5.717-2.64l-9.72-11.426a7.5 7.5 0 0 1 11.426-9.72l9.72 11.426a7.5 7.5 0 0 1-5.709 12.36zm-14.672 21.114a7.523 7.523 0 0 1-1.55-.162l-14.68-3.084a7.5 7.5 0 1 1 3.085-14.68l14.68 3.084a7.5 7.5 0 0 1-1.535 14.842z"/><path fill="#fdeb96" d="M233.946 169.157a7.501 7.501 0 0 1-2.474-14.582c8.65-3.023 14.455-7.278 17.257-12.647a21.582 21.582 0 0 0 1.652-4.484 36.573 36.573 0 0 1 2.766-7.313c4.556-8.82 12.891-15.501 24.775-19.858a7.5 7.5 0 1 1 5.164 14.083c-8.245 3.023-13.834 7.282-16.61 12.658a22.158 22.158 0 0 0-1.67 4.543 35.94 35.94 0 0 1-2.778 7.308c-4.624 8.863-13.239 15.548-25.607 19.87a7.49 7.49 0 0 1-2.475.422Z"/><path fill="#e5303e" d="M233.946 159.157a7.501 7.501 0 0 1-2.474-14.582c8.65-3.023 14.455-7.278 17.257-12.647a21.582 21.582 0 0 0 1.652-4.484 36.573 36.573 0 0 1 2.766-7.313c4.556-8.82 12.891-15.501 24.775-19.858a7.5 7.5 0 1 1 5.164 14.083c-8.245 3.023-13.834 7.282-16.61 12.658a22.158 22.158 0 0 0-1.67 4.543 35.94 35.94 0 0 1-2.778 7.308c-4.624 8.863-13.239 15.548-25.607 19.87a7.49 7.49 0 0 1-2.475.422Z"/><path fill="#fdeb96" d="M171.12 238.8a24.143 24.143 0 0 1-28.46 18.64 23.54 23.54 0 0 1-2.83-.77c.65-1.5 1.27-3.07 1.84-4.71a7.5 7.5 0 0 0-14.16-4.95l-.03.09a23.735 23.735 0 0 1-3.35-17.97 24.15 24.15 0 0 1 28.46-18.63 23.816 23.816 0 0 1 18.53 28.3Z"/><ellipse cx="182.711" cy="248.376" fill="#fdeb96" rx="23.923" ry="24.057" transform="rotate(-78.878 182.711 248.376)"/><path fill="#fdeb96" d="M142.65 242.103a7.498 7.498 0 0 0-9.56 4.6l-.03.09c-3.02 8.6-7.27 14.38-12.61 17.17a21.965 21.965 0 0 1-4.491 1.65 37.264 37.264 0 0 0-7.31 2.77c-8.82 4.55-15.5 12.89-19.86 24.77a7.5 7.5 0 1 0 14.08 5.17c3.03-8.25 7.29-13.84 12.66-16.61a21.724 21.724 0 0 1 4.54-1.67 36.094 36.094 0 0 0 7.31-2.78c7.7-4.01 13.74-11.03 18.03-20.9.65-1.5 1.27-3.07 1.84-4.71a7.487 7.487 0 0 0-4.6-9.55Z"/><path fill="#e5303e" d="M138.65 236.103a7.498 7.498 0 0 0-9.56 4.6l-.03.09c-3.02 8.6-7.27 14.38-12.61 17.17a21.964 21.964 0 0 1-4.491 1.65 37.264 37.264 0 0 0-7.31 2.77c-8.82 4.55-15.5 12.89-19.86 24.77a7.5 7.5 0 1 0 14.08 5.17c3.03-8.25 7.29-13.84 12.66-16.61a21.725 21.725 0 0 1 4.54-1.67 36.094 36.094 0 0 0 7.31-2.78c7.7-4.01 13.74-11.03 18.03-20.9.65-1.5 1.27-3.07 1.84-4.71a7.487 7.487 0 0 0-4.6-9.55Z"/><ellipse cx="220.272" cy="166.524" fill="#fdeb96" rx="24.057" ry="23.923" transform="rotate(-31.152 220.272 166.524)"/><ellipse cx="219.113" cy="157.717" fill="#f7991d" rx="24.057" ry="23.923" transform="rotate(-31.153 219.11 157.717)"/><ellipse cx="233.383" cy="201.447" fill="#fdeb96" rx="23.923" ry="24.057" transform="rotate(-87.963 233.383 201.447)"/><ellipse cx="232.223" cy="192.641" fill="#e5303e" rx="23.923" ry="24.057" transform="rotate(-87.963 232.223 192.641)"/><ellipse cx="185.013" cy="142.232" fill="#e5303e" rx="23.923" ry="24.057" transform="rotate(-78.321 185.013 142.232)"/><path fill="#b72732" d="M188.976 164.5a23.896 23.896 0 0 1-2.7-46.162 23.93 23.93 0 1 0 6.28 46.628 24.378 24.378 0 0 1-3.58-.467Z"/><ellipse cx="149.899" cy="155.256" fill="#f7991d" rx="24.057" ry="23.923" transform="rotate(-37.131 149.9 155.256)"/><path fill="#e37626" d="M132.588 158.133a24.152 24.152 0 0 1 27.123-20.536 23.805 23.805 0 0 1 9.653 3.535 23.776 23.776 0 0 0-16.114-9.63 24.152 24.152 0 0 0-27.124 20.536 23.825 23.825 0 0 0 10.77 23.438 23.77 23.77 0 0 1-4.308-17.343Z"/><ellipse cx="135.501" cy="197.967" fill="#fdeb96" rx="23.923" ry="24.057" transform="rotate(-77.648 135.5 197.967)"/><ellipse cx="134.341" cy="189.161" fill="#e5303e" rx="23.923" ry="24.057" transform="rotate(-77.648 134.34 189.16)"/><path fill="#b72732" d="M119.713 184.45a23.937 23.937 0 0 1 20.143-18.56c-.133-.032-.264-.069-.398-.098a23.923 23.923 0 1 0-1.76 47.075 23.983 23.983 0 0 1-17.985-28.417Z"/><ellipse cx="147.452" cy="224.084" fill="#f7991d" rx="24.057" ry="23.923" transform="rotate(-33.213 147.452 224.084)"/><path fill="#e37626" d="M149.008 241.525a23.889 23.889 0 0 1-14.299-37.68 23.938 23.938 0 1 0 32.007 34.449 24.037 24.037 0 0 1-17.708 3.23Z"/><ellipse cx="217.825" cy="235.352" fill="#fdeb96" rx="24.057" ry="23.923" transform="rotate(-31.475 217.823 235.35)"/><ellipse cx="216.665" cy="226.545" fill="#f7991d" rx="24.057" ry="23.923" transform="rotate(-31.475 216.665 226.545)"/><ellipse cx="181.552" cy="239.57" fill="#e5303e" rx="23.923" ry="24.057" transform="rotate(-78.878 181.552 239.57)"/><path fill="#b72732" d="M177.182 254.164a24.059 24.059 0 0 1-19.132-19.696c-.034.154-.073.306-.103.461a24.057 24.057 0 1 0 47.352.863 23.988 23.988 0 0 1-28.117 18.372Z"/><path fill="#e37626" d="M228.116 179.88c-8.07-1.39-2.34-6.626-4.24-9.68a37.39 37.39 0 0 0-28.23-17.447 23.899 23.899 0 0 0 32.47 27.127Z"/><path fill="#b72732" d="M208.182 191.786a23.904 23.904 0 0 0 12.528 21.854c1.245-3.758 4.242-5.842 5.648-9.06a37.033 37.033 0 0 0-2.485-34.38 23.927 23.927 0 0 0-15.69 21.586Z"/><path fill="#e37626" d="M192.643 226.901c2.586-1.456 5.735-.407 8.538-1.102a37.323 37.323 0 0 0 25.18-21.218 24.114 24.114 0 0 0-33.718 22.32Z"/><path fill="#b72732" d="M205.38 155.008a37.548 37.548 0 0 0-36.099 5.287 24.123 24.123 0 0 0 36.099-5.287zm-4.2 70.787a24.141 24.141 0 0 0-32.053-6.739 37.572 37.572 0 0 0 32.053 6.739z"/><ellipse cx="183.282" cy="190.901" fill="#fff" rx="37.165" ry="37.373" transform="rotate(-87.963 183.282 190.9)"/><path fill="#e0e0e2" d="M164.744 215.065a37.134 37.134 0 0 1 18.027-61.326 37.188 37.188 0 1 0 9.829 73.164 37.392 37.392 0 0 1-27.856-11.838Z"/><circle cx="183.282" cy="190.901" r="7.5" fill="#f7991d"/></svg>